<svg width="150" height="206" viewBox="0 0 150 206" fill="none" xmlns="http://www.w3.org/2000/svg">
<g clip-path="url(#clip0_10_109)">
<path d="M64.8219 12.4522C64.8219 19.3406 59.2582 24.9043 52.3697 24.9043C45.4813 24.9043 39.6085 22.3432 39.9176 12.4522C40.1384 5.56373 45.4813 0 52.3697 0C59.2582 0 64.8219 5.56373 64.8219 12.4522Z" fill="#F8BE00"/>
<path d="M84.9573 25.6107C84.9573 30.0264 81.3806 33.6472 76.9208 33.6472C72.461 33.6472 68.7077 32.0134 68.8843 25.6107C69.0168 21.1951 72.461 17.5742 76.9208 17.5742C81.3806 17.5742 84.9573 21.1509 84.9573 25.6107Z" fill="#F8BE00"/>
<path d="M1.94289 177.73L149.029 187.312C149.558 187.312 150 187.798 149.956 188.328L149.382 204.401C149.382 204.931 148.896 205.372 148.366 205.372L0.971445 204.313C0.39741 204.313 -0.0441566 203.827 -0.0441566 203.253L0.838976 178.702C0.838976 178.128 1.3247 177.686 1.89873 177.73H1.94289Z" fill="#302919"/>
<path d="M2.29614 159.096L60.8036 60.9362C61.1569 60.318 62.04 60.2739 62.4374 60.8479L149.029 171.107C149.558 171.813 149.029 172.785 148.145 172.741L3.04681 160.598C2.29614 160.554 1.89873 159.715 2.25199 159.096H2.29614Z" fill="#F8BE00"/>
<path d="M92.1107 122.093C92.4639 111.849 101.074 103.856 111.319 104.21C121.563 104.563 129.555 113.173 129.202 123.418C128.849 133.662 120.238 140.639 109.994 141.301C94.7159 142.228 91.7574 132.337 92.1107 122.093Z" fill="#A53623"/>
<path d="M41.9046 151.899C42.2579 142.493 50.1619 135.163 59.5673 135.473C68.9726 135.826 76.9208 139.623 75.9935 153.135C75.3753 162.541 67.7362 169.871 58.3309 169.561C48.9255 169.252 41.5955 161.304 41.9046 151.899Z" fill="#A53623"/>
<path d="M21.6809 100.015C21.99 91.1835 29.4525 84.2509 38.2838 84.56C47.1151 84.8691 53.6061 92.3316 53.7386 101.163C53.8711 113.88 45.967 116.927 37.1357 116.618C28.3044 116.309 21.3718 108.846 21.6809 100.015Z" fill="#A53623"/>
<path d="M76.3026 43.1851H49.1905V89.3729H76.3026V43.1851Z" fill="#F8BE00"/>
</g>
<defs>
<clipPath id="clip0_10_109">
<rect width="150" height="205.372" fill="white"/>
</clipPath>
</defs>
</svg>
