<svg width="216" height="216" viewBox="0 0 216 216" fill="none" xmlns="http://www.w3.org/2000/svg">
<g clip-path="url(#clip0_3_2)">
<path d="M216 108C216 167.643 167.67 216 108.054 216C48.438 216 -2.61901 193.779 0.107989 108C1.99799 48.384 48.438 0 108.054 0C167.67 0 216 48.357 216 108Z" fill="#0C6931"/>
<path d="M47.169 137.052C47.169 137.052 58.158 136.701 58.158 150.093C58.158 163.485 49.788 163.539 47.628 163.35C47.331 163.35 47.142 163.458 47.142 163.755V172.233C47.142 172.476 46.953 172.719 46.737 172.719H42.012C41.769 172.719 41.526 172.476 41.526 172.233V137.457C41.526 137.214 41.769 137.052 42.012 137.052H47.142H47.169ZM47.655 156.762C47.655 157.005 47.763 157.248 48.06 157.248C49.194 157.302 52.191 156.843 52.191 150.363C52.191 143.883 49.194 143.559 48.06 143.613C47.763 143.613 47.655 143.856 47.655 144.099V156.762Z" fill="white"/>
<path d="M74.547 152.712C74.547 153.954 74.007 155.115 73.224 155.871C72.981 156.06 72.981 156.222 73.17 156.465C74.007 157.599 74.547 160.164 74.547 161.433V172.26C74.547 172.503 74.304 172.746 74.061 172.746H70.605C70.362 172.746 70.2 172.557 70.2 172.341V161.46C70.146 159.84 68.958 157.572 67.338 157.221C67.041 157.167 66.852 157.329 66.852 157.626V172.26C66.852 172.503 66.663 172.746 66.447 172.746H62.991C62.748 172.746 62.505 172.503 62.505 172.26V137.484C62.505 137.241 62.748 137.079 62.991 137.079H70.227C72.495 137.079 74.601 138.996 74.601 141.507V152.739L74.547 152.712ZM70.2 142.722C70.2 141.777 69.363 140.94 68.337 140.94H67.311C67.068 140.94 66.825 141.183 66.825 141.426V153.387C66.825 153.63 67.068 153.873 67.311 153.873H68.337C69.363 153.873 70.119 153.036 70.2 152.01V142.749V142.722Z" fill="white"/>
<path d="M78.867 154.926C78.867 148.77 80.055 136.458 89.019 136.458C97.983 136.458 99.171 148.77 99.171 154.926C99.171 161.082 97.983 173.34 89.019 173.34C80.055 173.34 78.867 161.082 78.867 154.926ZM92.61 154.926C92.664 153.981 92.61 142.425 89.019 142.425C85.428 142.425 85.374 153.954 85.428 154.926C85.374 155.871 85.428 167.427 89.019 167.427C92.61 167.427 92.664 155.898 92.61 154.926Z" fill="white"/>
<path d="M101.088 167.103V159.867C101.088 159.624 101.331 159.381 101.574 159.381H104.976C105.219 159.381 105.462 159.57 105.462 159.786V166.725C105.462 167.616 106.191 168.399 107.082 168.453C108.027 168.507 108.81 167.724 108.81 166.833V137.43C108.81 137.187 109.053 137.025 109.296 137.025H112.698C112.941 137.025 113.184 137.214 113.184 137.43V166.968C113.184 170.262 110.619 173.313 107.379 173.313C104.139 173.313 101.115 170.505 101.115 167.103H101.088Z" fill="white"/>
<path d="M118.665 137.646C118.665 137.295 118.908 137.052 119.259 137.052H134.676C135.027 137.052 135.27 137.295 135.27 137.646V143.154C135.27 143.505 135.027 143.748 134.676 143.748H125.82C125.469 143.748 125.226 143.991 125.226 144.342V151.038C125.226 151.443 125.469 151.632 125.82 151.632H134.676C135.027 151.632 135.27 151.875 135.27 152.226V157.653C135.27 158.004 135.027 158.247 134.676 158.247H125.82C125.469 158.247 125.226 158.436 125.226 158.841V165.429C125.226 165.78 125.469 166.023 125.82 166.023H134.676C135.027 166.023 135.27 166.266 135.27 166.617V172.125C135.27 172.476 135.027 172.719 134.676 172.719H119.259C118.908 172.719 118.665 172.476 118.665 172.125V137.646Z" fill="white"/>
<path d="M139.59 142.614C139.59 139.32 142.101 136.458 145.638 136.458C149.175 136.458 151.686 139.32 151.686 142.614V149.202C151.686 149.445 151.443 149.607 151.2 149.607H147.798C147.555 149.607 147.312 149.418 147.312 149.202V142.749C147.312 141.858 146.529 141.075 145.638 141.075C144.747 141.075 143.964 141.858 143.964 142.749V167.076C143.964 167.967 144.747 168.75 145.638 168.75C146.529 168.75 147.312 167.967 147.312 167.076V160.623C147.312 160.38 147.555 160.218 147.798 160.218H151.2C151.443 160.218 151.686 160.407 151.686 160.623V167.211C151.686 170.505 149.175 173.367 145.638 173.367C142.101 173.367 139.59 170.505 139.59 167.211V142.641V142.614Z" fill="white"/>
<path d="M160.569 172.719C160.326 172.719 160.083 172.476 160.083 172.233V143.316C160.083 143.073 159.894 142.83 159.678 142.83H155.385C155.142 142.83 154.899 142.587 154.899 142.344V137.511C154.899 137.268 155.142 137.025 155.385 137.025H171.531C171.774 137.025 171.936 137.214 171.936 137.43V142.344C171.936 142.587 171.747 142.83 171.531 142.83H167.103C166.86 142.83 166.698 143.019 166.698 143.235V172.233C166.698 172.476 166.509 172.719 166.293 172.719H160.623H160.569Z" fill="white"/>
<path d="M51.084 65.1515C51.084 65.1515 68.877 64.5845 68.877 86.2385C68.877 107.892 55.35 108 51.867 107.703C51.381 107.703 51.084 107.892 51.084 108.378V122.094C51.084 122.472 50.787 122.877 50.409 122.877H42.768C42.39 122.877 41.985 122.499 41.985 122.094V65.8265C41.985 65.4485 42.363 65.1515 42.768 65.1515H51.084ZM51.867 97.0385C51.867 97.4165 52.056 97.8215 52.542 97.8215C54.378 97.9295 59.211 97.1465 59.211 86.6975C59.211 76.2485 54.378 75.6815 52.542 75.7625C52.056 75.7625 51.867 76.1405 51.867 76.5455V97.0385Z" fill="white"/>
<path d="M80.19 65.151C80.568 65.151 80.973 65.448 80.973 65.826V122.202C80.973 122.58 80.676 122.877 80.298 122.877H74.682C74.304 122.877 73.899 122.499 73.899 122.094V65.826C73.899 65.448 74.277 65.151 74.682 65.151H80.19Z" fill="white"/>
<path d="M118.071 73.548C118.071 73.926 117.963 74.223 117.774 74.709L100.953 112.617C100.656 113.292 101.061 113.778 101.736 113.778H117.099C117.666 113.778 118.071 114.156 118.071 114.75V121.905C118.071 122.472 117.693 122.877 117.099 122.877H88.857C88.29 122.877 87.885 122.499 87.885 121.905V114.372C87.885 113.994 87.993 113.697 88.182 113.211L105.003 75.411C105.3 74.736 104.895 74.25 104.22 74.25H88.857C88.29 74.25 87.885 73.872 87.885 73.278V66.123C87.885 65.556 88.263 65.151 88.857 65.151H117.099C117.666 65.151 118.071 65.529 118.071 66.123V73.575V73.548Z" fill="white"/>
<path d="M139.428 71.82C139.428 72.117 139.428 72.306 139.32 72.684L130.626 114.831C130.518 115.398 130.815 115.614 131.301 115.614H138.645C139.023 115.614 139.428 115.992 139.428 116.397V122.094C139.428 122.472 139.131 122.877 138.753 122.877H124.065C123.687 122.877 123.282 122.499 123.282 122.094V116.1C123.282 115.803 123.282 115.614 123.39 115.236L131.895 73.17C132.003 72.603 131.787 72.387 131.328 72.387H124.065C123.687 72.387 123.282 72.009 123.282 71.604V65.907C123.282 65.529 123.66 65.124 124.065 65.124H138.672C139.05 65.124 139.455 65.421 139.455 65.799V71.793L139.428 71.82Z" fill="white"/>
<path d="M95.04 52.245C94.932 52.245 94.851 52.164 94.851 52.083V41.985C94.851 41.904 94.77 41.823 94.689 41.823H92.961C92.853 41.823 92.772 41.742 92.772 41.661V39.96C92.772 39.879 92.88 39.798 92.961 39.798H99.441C99.549 39.798 99.603 39.852 99.603 39.933V41.634C99.603 41.715 99.522 41.796 99.441 41.796H97.659C97.551 41.796 97.497 41.85 97.497 41.931V52.029C97.497 52.11 97.416 52.191 97.335 52.191H95.067L95.04 52.245Z" fill="white"/>
<path d="M108.783 39.825C108.891 39.825 108.972 39.879 108.972 39.96V52.11C108.972 52.191 108.891 52.245 108.81 52.245H106.542C106.434 52.245 106.353 52.191 106.353 52.11V48.114C106.353 48.033 106.272 47.979 106.191 47.979H104.355C104.247 47.979 104.166 48.033 104.166 48.114V52.11C104.166 52.191 104.085 52.245 104.004 52.245H101.736C101.628 52.245 101.547 52.164 101.547 52.083V39.96C101.547 39.879 101.655 39.825 101.736 39.825H103.977C104.085 39.825 104.166 39.879 104.166 39.96V45.873C104.166 45.954 104.274 46.008 104.355 46.008H106.164C106.272 46.008 106.353 45.927 106.353 45.846V39.96C106.353 39.879 106.461 39.798 106.542 39.798H108.783V39.825Z" fill="white"/>
<path d="M111.294 40.014C111.294 39.879 111.402 39.798 111.537 39.798H117.72C117.855 39.798 117.963 39.879 117.963 40.014V41.931C117.963 42.066 117.855 42.147 117.72 42.147H114.183C114.048 42.147 113.94 42.228 113.94 42.363V44.685C113.94 44.82 114.048 44.901 114.183 44.901H117.72C117.855 44.901 117.963 44.982 117.963 45.117V47.007C117.963 47.142 117.855 47.223 117.72 47.223H114.183C114.048 47.223 113.94 47.277 113.94 47.439V49.734C113.94 49.869 114.048 49.95 114.183 49.95H117.72C117.855 49.95 117.963 50.031 117.963 50.166V52.083C117.963 52.218 117.855 52.299 117.72 52.299H111.537C111.402 52.299 111.294 52.218 111.294 52.083V40.068V40.014Z" fill="white"/>
<path d="M158.004 55.269C158.004 57.051 156.573 58.482 154.791 58.482C153.009 58.482 151.497 57.834 151.578 55.269C151.632 53.487 153.009 52.056 154.791 52.056C156.573 52.056 158.004 53.487 158.004 55.269Z" fill="#F8BE00"/>
<path d="M163.215 58.671C163.215 59.805 162.297 60.75 161.136 60.75C159.975 60.75 159.003 60.318 159.057 58.671C159.084 57.537 159.975 56.592 161.136 56.592C162.297 56.592 163.215 57.51 163.215 58.671Z" fill="#F8BE00"/>
<path d="M145.719 115.776L143.775 122.499H172.233L170.775 117.423L145.719 115.776Z" fill="#302919"/>
<path d="M169.668 113.643L162.81 77.922L164.025 64.827H151.983L153.198 77.922L146.772 112.131L169.668 113.643Z" fill="#F8BE00"/>
<path d="M145.719 108.216C144.639 106.65 145.071 104.49 146.637 103.437C148.203 102.357 149.958 102.033 151.416 104.355C152.442 105.975 152.064 108.081 150.498 109.134C148.932 110.214 146.772 109.782 145.719 108.216Z" fill="#A53623"/>
<path d="M161.433 99.576C160.434 98.091 160.839 96.039 162.351 95.013C163.863 93.987 165.537 93.663 166.914 95.877C168.291 98.091 167.508 99.414 165.996 100.44C164.484 101.466 162.432 101.088 161.433 99.576Z" fill="#A53623"/>
<path d="M160.677 114.561C159.678 113.076 160.083 111.024 161.595 109.998C163.107 108.972 164.781 108.648 166.158 110.862C167.535 113.076 166.752 114.399 165.24 115.425C163.728 116.451 161.676 116.073 160.677 114.561Z" fill="#A53623"/>
</g>
<defs>
<clipPath id="clip0_3_2">
<rect width="216" height="216" fill="white"/>
</clipPath>
</defs>
</svg>
