<svg width="258" height="160" fill="none" xmlns="http://www.w3.org/2000/svg"><path d="M100.945 23.615 89.169 0 69.232 14.818l19.256 18.054 12.457-9.257ZM120.342 10.004 80.312 59.16l51.627 59.098 56.829-69.782-68.426-38.47Zm17.146 57.417c-6.011-6.005-6.011-15.743 0-21.75 6.012-6.006 15.76-6.006 21.773 0 6.012 6.005 6.012 15.743 0 21.75-6.011 6.005-15.759 6.005-21.773 0Z" fill="#F2BA3E"/><path d="M5.952 118.307v-16.27H0v-8.514h14.177c5.663 0 9.812.921 12.447 2.76 2.632 1.84 3.95 4.407 3.95 7.707 0 3.108-1.985 5.17-5.952 6.183 3.967 1.141 5.952 3.203 5.952 6.184 0 3.616-1.445 6.263-4.329 7.944-2.886 1.681-6.908 2.52-12.068 2.52H0v-8.514h5.952Zm22.455-13.844c0-1.586-2.851-2.378-8.55-2.378H8.117v4.756h11.742c5.7 0 8.55-.792 8.55-2.378Zm0 11.418c0-1.586-2.851-2.378-8.55-2.378H8.117v4.756h11.742c5.7 0 8.55-.792 8.55-2.378ZM65.528 125.989a8.124 8.124 0 0 1-2.652-2.545c-.506-.57-.757-1.902-.757-3.997 0-.316.017-.65.054-.998.035-.349.055-.792.055-1.333 0-1.14-.299-1.989-.891-2.545-.596-.555-1.363-.832-2.299-.832h-9.254v4.52h5.952v8.562H41.668v-8.562h5.952v-16.172h-5.952v-8.564h14.178c3.68 0 6.746.436 9.199 1.307 2.453.872 4.266 2.062 5.439 3.569 1.173 1.507 1.758 3.21 1.758 5.115 0 3.203-1.589 5.755-4.762 7.658-1.805 1.046-2.704 1.902-2.704 2.57 0 1.046.234 1.83.702 2.356.468.523 1.063.784 1.786.784.468 0 1.551-.301 3.247-.904 1.335-.57 2.291-.856 2.869-.856.468 0 .83.159 1.083.475.685 1.016 1.208 1.968 1.57 2.854.36.889.54 1.649.54 2.284 0 2.156-.658 3.735-1.975 4.734-1.318.998-3.148 1.499-5.492 1.499-1.297 0-2.49-.324-3.57-.976l-.008-.003Zm4.545-21.526c0-.792-.795-1.387-2.381-1.783-1.589-.396-3.643-.595-6.169-.595H49.782v4.756h11.741c5.7 0 8.55-.792 8.55-2.378ZM89.823 118.259l9.74-24.736h3.95l9.739 24.736h7.683v8.562h-14.068v-8.562h4.059l-1.514-3.9h-7.792l-1.514 3.9h4.6v8.562H84.415v-8.562h5.411-.002Zm15.692-13.749-3.138 7.944h6.278l-3.138-7.944h-.002ZM133.598 125.681c-2.525-1.046-4.32-2.8-5.384-5.258-1.063-2.458-1.596-5.907-1.596-10.347 0-4.44.496-8.103 1.489-10.514.991-2.41 2.715-4.107 5.168-5.09 2.453-.984 6.006-1.474 10.658-1.474 5.845 0 10.066 1.093 12.661 3.282 1.009.889 1.84 1.975 2.49 3.26.65 1.285.974 2.53.974 3.735h1.083c0-1.395-.378-2.814-1.135-4.258-.757-1.442-1.786-2.72-3.086-3.83v-1.759h6.493v14.748h-6.493c0-3.424-4.51-5.138-13.527-5.138-3.825 0-6.458.065-7.899.19-1.806.189-3.176.493-4.112.904-.939.413-1.606 1.071-2.002 1.975-.399.904-.595 2.228-.595 3.972 0 1.997.386 3.536 1.163 4.614.774 1.079 1.974 1.823 3.598 2.237 1.624.413 3.823.617 6.602.617h3.516c3.788 0 6.943-.301 9.469-.904 2.525-.603 3.787-1.888 3.787-3.852h6.493c0 3.456-.658 6.24-1.975 8.347-1.318 2.109-3.365 3.656-6.141 4.637-2.78.984-6.458 1.474-11.04 1.474-4.582 0-8.136-.523-10.659-1.568ZM180.404 125.681c-2.525-1.046-4.321-2.8-5.384-5.258-1.063-2.458-1.596-5.907-1.596-10.347 0-4.44.495-8.103 1.489-10.514.991-2.41 2.714-4.107 5.167-5.09 2.453-.984 6.007-1.474 10.659-1.474 5.845 0 10.066 1.093 12.661 3.282 1.008.889 1.84 1.975 2.49 3.26.65 1.285.974 2.53.974 3.735h1.083c0-1.395-.379-2.814-1.136-4.258-.757-1.442-1.785-2.72-3.085-3.83v-1.759h6.492v14.748h-6.492c0-3.424-4.51-5.138-13.528-5.138-3.825 0-6.457.065-7.899.19-1.805.189-3.175.493-4.111.904-.939.413-1.607 1.071-2.003 1.975-.398.904-.595 2.228-.595 3.972 0 1.997.386 3.536 1.163 4.614.775 1.079 1.975 1.823 3.599 2.237 1.623.413 3.822.617 6.602.617h3.516c3.788 0 6.943-.301 9.468-.904 2.525-.603 3.788-1.888 3.788-3.852h6.492c0 3.456-.657 6.24-1.975 8.347-1.317 2.109-3.364 3.656-6.141 4.637-2.779.984-6.457 1.474-11.039 1.474-4.583 0-8.136-.523-10.659-1.568ZM229.538 125.016c-2.814-1.49-4.888-3.522-6.223-6.089-1.335-2.57-2.002-5.486-2.002-8.754 0-5.899 1.568-10.228 4.706-12.987 3.138-2.76 7.504-4.139 13.097-4.139 4.221 0 7.747.755 10.579 2.259 2.831 1.507 4.923 3.551 6.278 6.136 1.352 2.585 2.029 5.494 2.029 8.729 0 5.932-1.568 10.26-4.706 12.987-3.138 2.727-7.541 4.091-13.204 4.091-4.221 0-7.737-.744-10.551-2.236l-.003.003Zm23.999-9.538c1.534-1.253 2.299-3.021 2.299-5.305 0-2.283-.892-4.169-2.677-5.376-1.786-1.206-4.087-1.808-6.898-1.808h-13.259c-3.282 0-5.69.635-7.224 1.902-1.534 1.268-2.299 3.029-2.299 5.28 0 2.378.892 4.171 2.68 5.376 1.785 1.206 4.066 1.808 6.846 1.808h13.258c3.32 0 5.745-.625 7.277-1.88l-.003.003ZM7.802 151.738c1.873.331 2.81 1.374 2.81 3.127 0 2.75-1.9 4.124-5.699 4.124H.371v-13.945h4.383c.45 0 .884.017 1.295.049.41.033.906.127 1.484.279a5.518 5.518 0 0 1 1.484.608c.411.252.767.625 1.066 1.116.3.49.449 1.068.449 1.733 0 1.621-.91 2.59-2.73 2.909Zm-6.614-4.403v3.267h3.367c1.048 0 1.813-.01 2.29-.03.479-.02.985-.08 1.515-.179.53-.1.887-.262 1.066-.488.18-.227.269-.531.269-.917 0-.199-.028-.376-.08-.528a.909.909 0 0 0-.279-.398 3.042 3.042 0 0 0-.418-.299c-.147-.087-.349-.152-.608-.199a24.324 24.324 0 0 0-.717-.12 8.239 8.239 0 0 0-.897-.069 98.911 98.911 0 0 0-1.006-.03 44.49 44.49 0 0 0-1.135-.01h-3.37.003Zm3.068 9.363c2.179 0 3.646-.129 4.403-.388.757-.259 1.135-.74 1.135-1.445 0-.465-.112-.836-.338-1.115-.227-.279-.598-.488-1.116-.628a9.341 9.341 0 0 0-1.683-.279 32.55 32.55 0 0 0-2.401-.069h-3.07v3.924H4.255ZM31.47 149.088c0 2.084-.988 3.399-2.968 3.945l2.789 5.956h-1.235l-2.73-5.757c-.33.04-.704.06-1.115.06h-4.084v5.697h-.817v-13.945h4.9c.479 0 .905.017 1.276.049.37.033.824.127 1.354.279.53.152.974.361 1.325.628.351.266.658.665.917 1.195.259.531.388 1.163.388 1.893Zm-5.359 1.952c1.713 0 2.906-.112 3.576-.338.67-.227 1.006-.737 1.006-1.534s-.331-1.293-.996-1.524c-.665-.232-1.86-.349-3.586-.349h-3.985v3.745h3.985ZM41.847 158.989v-13.945h9.344v2.291h-8.527v3.486h8.308v2.172h-8.308v3.705h8.527v2.291h-9.344ZM72.81 158.989l-1.036-2.888h-8.906l-1.036 2.888h-.876l5.16-13.945h2.41l5.16 13.945h-.876Zm-9.145-5.1h7.312l-2.43-6.714h-2.451l-2.43 6.714ZM83.306 158.989v-13.945h3.965c2.124 0 3.803.6 5.03 1.803 1.228 1.202 1.843 2.938 1.843 5.209 0 2.272-.617 3.878-1.853 5.101-1.235 1.222-2.908 1.832-5.02 1.832h-3.965Zm.817-2.291h3.327c1.527 0 2.727-.179 3.596-.538.87-.358 1.467-.859 1.793-1.504.326-.645.488-1.511.488-2.6 0-1.725-.44-2.946-1.325-3.655-.884-.71-2.4-1.066-4.552-1.066h-3.327v9.363ZM123.41 159.229c-1.885 0-3.396-.638-4.532-1.913-1.136-1.275-1.703-3.056-1.703-5.339 0-2.284.575-4.035 1.723-5.29 1.148-1.255 2.652-1.882 4.512-1.882 1.502 0 2.807.418 3.915 1.255 1.108.836 1.664 1.999 1.664 3.486h-.817c0-.65-.478-1.223-1.434-1.713-.957-.491-2.092-.737-3.407-.737-.785 0-1.484.082-2.102.249-.618.167-1.113.396-1.484.687a5.595 5.595 0 0 0-.937.916c-.251.319-.43.68-.538 1.086-.107.406-.179.75-.219 1.036-.04.287-.059.588-.059.907 0 .386.027.757.079 1.115.052.359.187.787.399 1.285.211.498.498.924.856 1.275.359.352.884.655 1.574.907.69.251 1.502.378 2.431.378 1.302 0 2.433-.266 3.397-.796.963-.531 1.444-1.096 1.444-1.694h.817c0 1.303-.575 2.423-1.724 3.367-1.148.944-2.433 1.415-3.855 1.415ZM144.987 159.268c-1.806 0-3.26-.655-4.363-1.962-1.104-1.307-1.654-3.071-1.654-5.289 0-2.219.55-3.982 1.654-5.29 1.103-1.307 2.557-1.962 4.363-1.962 1.805 0 3.24.655 4.343 1.962 1.103 1.308 1.653 3.071 1.653 5.29 0 2.218-.55 3.982-1.653 5.289-1.103 1.307-2.55 1.962-4.343 1.962Zm-2.291-2.669c.664.251 1.427.378 2.291.378.864 0 1.626-.127 2.291-.378.665-.252 1.173-.558 1.524-.917a4.35 4.35 0 0 0 .857-1.265c.219-.485.358-.914.418-1.285a6.986 6.986 0 0 0 0-2.231c-.06-.371-.199-.8-.418-1.285a4.35 4.35 0 0 0-.857-1.265c-.351-.359-.859-.665-1.524-.917-.665-.251-1.427-.378-2.291-.378-.864 0-1.627.127-2.291.378-.665.252-1.173.558-1.525.917-.351.358-.64.779-.866 1.265-.227.485-.369.914-.428 1.285a6.989 6.989 0 0 0 0 2.231c.059.371.201.8.428 1.285.226.486.515.907.866 1.265.352.359.86.665 1.525.917ZM161.781 158.989v-13.945h.797l5.359 9.503 5.38-9.503h.777v13.945h-.817v-9.602l-4.582 8.327H167.2l-4.602-8.327v9.602h-.817ZM185.489 158.989v-13.945h4.901c.478 0 .904.017 1.275.049.371.033.825.127 1.355.279.53.152.974.361 1.325.628.351.266.657.665.916 1.195.259.531.389 1.163.389 1.893 0 1.248-.401 2.261-1.206 3.038-.804.777-2.154 1.166-4.054 1.166h-4.084v5.697h-.817Zm.817-7.949h3.985c1.713 0 2.906-.112 3.576-.338.67-.227 1.006-.737 1.006-1.534s-.331-1.293-.996-1.524c-.665-.232-1.861-.349-3.586-.349h-3.985v3.745ZM214.835 158.989l-1.036-2.888h-8.905l-1.036 2.888h-.877l5.16-13.945h2.411l5.16 13.945h-.877Zm-9.144-5.1h7.311l-2.43-6.714h-2.451l-2.43 6.714ZM234.758 145.044h.817v13.945h-.817l-8.607-10.638v10.638h-.817v-13.945h.817l8.607 10.877v-10.877ZM254.919 145.044h2.311l-5.498 8.586v5.359h-1.455v-5.359l-4.861-8.586h.877l4.144 7.271 4.482-7.271Z" fill="#C2422C"/></svg>
