<svg width="1600" height="39" viewBox="0 0 1600 39" fill="none" xmlns="http://www.w3.org/2000/svg" preserveAspectRatio="none">
<path d="M0.00609703 38.5906C0.00609703 38.5906 -1.10502 33.5754 26.6727 22.508C54.4503 11.4406 106.672 10.4979 160.005 11.4406C213.339 12.3833 266.672 22.5645 320.005 21.4898C373.338 20.4906 426.671 8.42391 480.004 8.42391C533.337 8.42391 586.671 20.4906 640.004 23.5072C693.337 26.5239 746.67 20.4906 800.003 20.4906C853.336 20.4906 906.669 26.5239 960.003 24.5065C1013.34 22.5645 1066.67 12.3833 1120 11.4406C1173.34 10.4979 1226.67 18.4166 1280 16.4746C1333.33 14.4572 1386.67 2.39059 1440 0.373193C1493.33 -1.56878 1546.67 4.40796 1573.33 10.4413C1600 16.4747 1600 38.5906 1600 38.5906H1573.33C1546.67 38.5906 1493.33 38.5906 1440 38.5906C1386.67 38.5906 1333.33 38.5906 1280 38.5906C1226.67 38.5906 1173.34 38.5906 1120 38.5906C1066.67 38.5906 1013.34 38.5906 960.003 38.5906C906.669 38.5906 853.336 38.5906 800.003 38.5906C746.67 38.5906 693.337 38.5906 640.004 38.5906C586.671 38.5906 533.337 38.5906 480.004 38.5906C426.671 38.5906 373.338 38.5906 320.005 38.5906C266.672 38.5906 213.339 38.5906 160.005 38.5906C106.672 38.5906 53.3392 38.5906 26.6727 38.5906H0.00609703Z" fill="#A53623"/>
</svg>
