<svg width="1600" height="39" viewBox="0 0 1600 39" fill="none" xmlns="http://www.w3.org/2000/svg" preserveAspectRatio="none">
<path d="M1599.99 0.000267028C1599.99 0.000267028 1601.11 5.01547 1573.33 16.0829C1545.55 27.1502 1493.33 28.0929 1439.99 27.1502C1386.66 26.2075 1333.33 16.0263 1280 17.1009C1226.66 18.1002 1173.33 30.1669 1120 30.1669C1066.66 30.1669 1013.33 18.1002 959.996 15.0835C906.663 12.0669 853.33 18.1002 799.997 18.1002C746.664 18.1002 693.331 12.0668 639.997 14.0842C586.664 16.0262 533.331 26.2074 479.998 27.1501C426.665 28.0928 373.332 20.1741 319.999 22.1161C266.666 24.1335 213.333 36.2001 159.999 38.2175C106.666 40.1595 53.3331 34.1827 26.6666 28.1494C1.30625e-06 22.116 3.0598e-06 0.000112803 3.0598e-06 0.000112803L26.6666 0.000115373C53.3331 0.000117944 106.666 0.000123085 159.999 0.000128225C213.333 0.000133366 266.666 0.000138507 319.999 0.000143648C373.332 0.000148789 426.665 0.00015393 479.998 0.00015907C533.331 0.000164211 586.664 0.000169352 639.998 0.000174493C693.331 0.000179634 746.664 0.000184775 799.997 0.000189916C853.33 0.000195056 906.663 0.000200197 959.996 0.000205338C1013.33 0.000210479 1066.66 0.00021562 1120 0.000220761C1173.33 0.000225901 1226.66 0.000231042 1280 0.000236183C1333.33 0.000241324 1386.66 0.000246465 1439.99 0.000251606C1493.33 0.000256747 1546.66 0.000261887 1573.33 0.000264458L1599.99 0.000267028Z" fill="#A53623"/>
</svg>
