<svg xmlns="http://www.w3.org/2000/svg" version="1.1" xmlns:xlink="http://www.w3.org/1999/xlink" xmlns:svgjs="http://svgjs.dev/svgjs" width="800" height="800"><svg id="SvgjsSvg1001" xmlns="http://www.w3.org/2000/svg" version="1.1" viewBox="0 0 800 800">
  <!-- Generator: Adobe Illustrator 29.0.1, SVG Export Plug-In . SVG Version: 2.1.0 Build 192)  -->
  <defs>
    <style>
      .st0 {
        fill: #302919;
      }

      .st1 {
        fill: #0c6931;
      }

      .st2 {
        fill: #fff;
      }

      .st3 {
        fill: #f8be00;
      }

      .st4 {
        fill: #a53623;
      }
    </style>
  </defs>
  <rect class="st1" width="800" height="800"></rect>
  <g>
    <g>
      <path class="st2" d="M178.8,512.9s40.7-1.3,40.7,48.3-31,49.8-39,49.1c-1.1,0-1.8.4-1.8,1.5v31.4c0,.9-.7,1.8-1.5,1.8h-17.5c-.9,0-1.8-.9-1.8-1.8v-128.8c0-.9.9-1.5,1.8-1.5h19ZM180.6,585.9c0,.9.4,1.8,1.5,1.8,4.2.2,15.3-1.5,15.3-25.5s-11.1-25.2-15.3-25c-1.1,0-1.5.9-1.5,1.8v46.9Z"></path>
      <path class="st2" d="M280.2,570.9c0,4.6-2,8.9-4.9,11.7-.9.7-.9,1.3-.2,2.2,3.1,4.2,5.1,13.7,5.1,18.4v40.1c0,.9-.9,1.8-1.8,1.8h-12.8c-.9,0-1.5-.7-1.5-1.5v-40.3c-.2-6-4.6-14.4-10.6-15.7-1.1-.2-1.8.4-1.8,1.5v54.2c0,.9-.7,1.8-1.5,1.8h-12.8c-.9,0-1.8-.9-1.8-1.8v-128.8c0-.9.9-1.5,1.8-1.5h26.8c8.4,0,16.2,7.1,16.2,16.4v41.6ZM264,533.9c0-3.5-3.1-6.6-6.9-6.6h-3.8c-.9,0-1.8.9-1.8,1.8v44.3c0,.9.9,1.8,1.8,1.8h3.8c3.8,0,6.6-3.1,6.9-6.9v-34.3Z"></path>
      <path class="st2" d="M296.1,579.1c0-22.8,4.4-68.4,37.6-68.4s37.6,45.6,37.6,68.4-4.4,68.2-37.6,68.2-37.6-45.4-37.6-68.2ZM347,579.1c.2-3.5,0-46.3-13.3-46.3s-13.5,42.7-13.3,46.3c-.2,3.5,0,46.3,13.3,46.3s13.5-42.7,13.3-46.3Z"></path>
      <path class="st2" d="M378.5,624.2v-26.8c0-.9.9-1.8,1.8-1.8h12.6c.9,0,1.8.7,1.8,1.5v25.7c0,3.3,2.7,6.2,6,6.4,3.5.2,6.4-2.7,6.4-6v-108.9c0-.9.9-1.5,1.8-1.5h12.6c.9,0,1.8.7,1.8,1.5v109.4c0,12.2-9.5,23.5-21.5,23.5s-23.2-10.4-23.2-23Z"></path>
      <path class="st2" d="M443.6,515.1c0-1.3.9-2.2,2.2-2.2h57.1c1.3,0,2.2.9,2.2,2.2v20.4c0,1.3-.9,2.2-2.2,2.2h-32.8c-1.3,0-2.2.9-2.2,2.2v24.8c0,1.5.9,2.2,2.2,2.2h32.8c1.3,0,2.2.9,2.2,2.2v20.1c0,1.3-.9,2.2-2.2,2.2h-32.8c-1.3,0-2.2.7-2.2,2.2v24.4c0,1.3.9,2.2,2.2,2.2h32.8c1.3,0,2.2.9,2.2,2.2v20.4c0,1.3-.9,2.2-2.2,2.2h-57.1c-1.3,0-2.2-.9-2.2-2.2v-127.7Z"></path>
      <path class="st2" d="M521,533.5c0-12.2,9.3-22.8,22.4-22.8s22.4,10.6,22.4,22.8v24.4c0,.9-.9,1.5-1.8,1.5h-12.6c-.9,0-1.8-.7-1.8-1.5v-23.9c0-3.3-2.9-6.2-6.2-6.2s-6.2,2.9-6.2,6.2v90.1c0,3.3,2.9,6.2,6.2,6.2s6.2-2.9,6.2-6.2v-23.9c0-.9.9-1.5,1.8-1.5h12.6c.9,0,1.8.7,1.8,1.5v24.4c0,12.2-9.3,22.8-22.4,22.8s-22.4-10.6-22.4-22.8v-91Z"></path>
      <path class="st2" d="M598.7,645c-.9,0-1.8-.9-1.8-1.8v-107.1c0-.9-.7-1.8-1.5-1.8h-15.9c-.9,0-1.8-.9-1.8-1.8v-17.9c0-.9.9-1.8,1.8-1.8h59.8c.9,0,1.5.7,1.5,1.5v18.2c0,.9-.7,1.8-1.5,1.8h-16.4c-.9,0-1.5.7-1.5,1.5v107.4c0,.9-.7,1.8-1.5,1.8h-21Z"></path>
    </g>
    <g>
      <path class="st2" d="M193.3,246.6s65.9-2.1,65.9,78.1-50.1,80.6-63,79.5c-1.8,0-2.9.7-2.9,2.5v50.8c0,1.4-1.1,2.9-2.5,2.9h-28.3c-1.4,0-2.9-1.4-2.9-2.9v-208.4c0-1.4,1.4-2.5,2.9-2.5h30.8ZM196.1,364.7c0,1.4.7,2.9,2.5,2.9,6.8.4,24.7-2.5,24.7-41.2s-17.9-40.8-24.7-40.5c-1.8,0-2.5,1.4-2.5,2.9v75.9Z"></path>
      <path class="st2" d="M301,246.6c1.4,0,2.9,1.1,2.9,2.5v208.8c0,1.4-1.1,2.5-2.5,2.5h-20.8c-1.4,0-2.9-1.4-2.9-2.9v-208.4c0-1.4,1.4-2.5,2.9-2.5h20.4Z"></path>
      <path class="st2" d="M441.4,277.7c0,1.4-.4,2.5-1.1,4.3l-62.3,140.4c-1.1,2.5.4,4.3,2.9,4.3h56.9c2.1,0,3.6,1.4,3.6,3.6v26.5c0,2.1-1.4,3.6-3.6,3.6h-104.6c-2.1,0-3.6-1.4-3.6-3.6v-27.9c0-1.4.4-2.5,1.1-4.3l62.3-140c1.1-2.5-.4-4.3-2.9-4.3h-56.9c-2.1,0-3.6-1.4-3.6-3.6v-26.5c0-2.1,1.4-3.6,3.6-3.6h104.6c2.1,0,3.6,1.4,3.6,3.6v27.6Z"></path>
      <path class="st2" d="M520.5,271.3c0,1.1,0,1.8-.4,3.2l-32.2,156.1c-.4,2.1.7,2.9,2.5,2.9h27.2c1.4,0,2.9,1.4,2.9,2.9v21.1c0,1.4-1.1,2.9-2.5,2.9h-54.4c-1.4,0-2.9-1.4-2.9-2.9v-22.2c0-1.1,0-1.8.4-3.2l31.5-155.8c.4-2.1-.4-2.9-2.1-2.9h-26.9c-1.4,0-2.9-1.4-2.9-2.9v-21.1c0-1.4,1.4-2.9,2.9-2.9h54.1c1.4,0,2.9,1.1,2.9,2.5v22.2Z"></path>
    </g>
    <g>
      <path class="st2" d="M356.1,198.8c-.4,0-.7-.3-.7-.6v-37.4c0-.3-.3-.6-.6-.6h-6.4c-.4,0-.7-.3-.7-.6v-6.3c0-.3.4-.6.7-.6h24c.4,0,.6.2.6.5v6.3c0,.3-.3.6-.6.6h-6.6c-.4,0-.6.2-.6.5v37.4c0,.3-.3.6-.6.6h-8.4Z"></path>
      <path class="st2" d="M406.9,152.8c.4,0,.7.2.7.5v45c0,.3-.3.5-.6.5h-8.4c-.4,0-.7-.2-.7-.5v-14.8c0-.3-.3-.5-.6-.5h-6.8c-.4,0-.7.2-.7.5v14.8c0,.3-.3.5-.6.5h-8.4c-.4,0-.7-.3-.7-.6v-44.9c0-.3.4-.5.7-.5h8.3c.4,0,.7.2.7.5v21.9c0,.3.4.5.7.5h6.7c.4,0,.7-.3.7-.6v-21.8c0-.3.4-.6.7-.6h8.3Z"></path>
      <path class="st2" d="M416.3,153.5c0-.5.4-.8.9-.8h22.9c.5,0,.9.3.9.8v7.1c0,.5-.4.8-.9.8h-13.1c-.5,0-.9.3-.9.8v8.6c0,.5.4.8.9.8h13.1c.5,0,.9.3.9.8v7c0,.5-.4.8-.9.8h-13.1c-.5,0-.9.2-.9.8v8.5c0,.5.4.8.9.8h13.1c.5,0,.9.3.9.8v7.1c0,.5-.4.8-.9.8h-22.9c-.5,0-.9-.3-.9-.8v-44.5Z"></path>
    </g>
    <path class="st3" d="M589.3,210c0,6.6-5.3,11.9-11.9,11.9s-12.2-2.4-11.9-11.9c.2-6.6,5.3-11.9,11.9-11.9s11.9,5.3,11.9,11.9Z"></path>
    <path class="st3" d="M608.5,222.6c0,4.2-3.4,7.7-7.7,7.7s-7.9-1.6-7.7-7.7c.1-4.2,3.4-7.7,7.7-7.7s7.7,3.4,7.7,7.7Z"></path>
    <polygon class="st0" points="543.8 434.1 536.6 459 642 459 636.5 440.2 543.8 434.1"></polygon>
    <polygon class="st3" points="632.5 426.2 607.1 293.9 611.6 245.4 567 245.4 571.5 293.9 547.7 420.6 632.5 426.2"></polygon>
    <path class="st4" d="M543.7,406.1c-4-5.8-2.4-13.8,3.4-17.7,5.8-4,12.3-5.2,17.7,3.4,3.8,6,2.4,13.8-3.4,17.7s-13.8,2.4-17.7-3.4Z"></path>
    <path class="st4" d="M601.9,374.1c-3.7-5.5-2.2-13.1,3.4-16.9,5.6-3.8,11.8-5,16.9,3.2,3.6,5.7,2.2,13.1-3.4,16.9-5.6,3.8-13.2,2.4-16.9-3.2Z"></path>
    <path class="st4" d="M599.1,429.6c-3.7-5.5-2.2-13.1,3.4-16.9s11.8-5,16.9,3.2c3.6,5.7,2.2,13.1-3.4,16.9-5.6,3.8-13.2,2.4-16.9-3.2Z"></path>
  </g>
</svg><style>@media (prefers-color-scheme: light) { :root { filter: none; } }
@media (prefers-color-scheme: dark) { :root { filter: none; } }
</style></svg>